<mxfile host="app.diagrams.net" modified="2024-03-10T04:39:33.899Z" agent="Mozilla/5.0 (Windows NT 10.0; Win64; x64) AppleWebKit/537.36 (KHTML, like Gecko) Chrome/122.0.0.0 Safari/537.36" version="24.0.4" etag="6dTDA1_qVj1gg3sjT8xm" type="github">
  <diagram name="Page-1" id="TeEZjlt-CuiWKN3Pu_aM">
    <mxGraphModel>
      <root>
        <mxCell id="0" />
        <mxCell id="1" parent="0" />
      </root>
    </mxGraphModel>
  </diagram>
</mxfile>
